<svg xmlns="http://www.w3.org/2000/svg" viewBox="-133.961 -101 138.683 109.32">
  <path fill="#FB3E44" d="M-133.96-75.359h12.82V-94.59h6.411v19.231h6.41V-101h-25.641z"/>
  <path d="M-89.089-84.223c0 .646-.034 1.292-.102 1.87h-10.743c.272 3.128 1.802 4.317 5.27 4.317 1.733 0 3.501-.374 4.352-.815h.306v2.991c-.85.544-2.992 1.02-5.473 1.02-6.154 0-8.839-3.162-8.839-8.397s2.958-8.669 8.261-8.669c4.827 0 6.968 3.433 6.968 7.683zm-10.845-.646h6.731c-.102-2.516-.952-4.08-2.992-4.08-2.141 0-3.433 1.02-3.739 4.08zM-85.416-91.566h4.182v1.972h.102c.85-1.122 2.549-2.142 4.521-2.142.408 0 .85.034 1.224.102v3.502h-.306c-.374-.068-.782-.136-1.19-.136-1.734 0-3.502.612-4.352 1.802v11.287h-4.182v-16.387zM-62.33-76.642h-.136c-.782.85-2.21 1.802-4.42 1.802-4.08 0-6.867-3.127-6.867-8.023 0-5.644 3.468-9.009 9.009-9.009.952 0 1.87.17 2.346.306v-8.431h4.182v24.817h-4.114v-1.462zm-3.332-1.53c1.53 0 2.652-.612 3.264-1.36v-9.043c-.34-.136-1.224-.306-2.04-.306-2.992 0-4.929 1.904-4.929 5.813 0 3.4 1.632 4.896 3.705 4.896zM-55.223-67.633v-3.128h.306c.442.102.782.17 1.496.17 2.142 0 3.332-1.02 4.012-2.89l.17-.476-6.391-17.61h4.283l2.822 8.431c.102.374 1.054 3.366 1.122 3.808h.102c.068-.442 1.02-3.434 1.122-3.808l2.753-8.431h4.012L-45.942-72.8c-1.224 3.536-3.23 5.372-7.513 5.372-.816-.001-1.326-.137-1.768-.205z"/>
  <g>
    <path fill="#FB3E44" d="M-133.96-32.082h12.82v-6.41h12.821v-25.641h-25.641z"/>
    <path d="M-93.91-34.363h-.136c-.816.884-2.414 1.87-4.692 1.87-3.297 0-5.303-2.108-5.303-4.793 0-3.501 2.72-5.133 7.343-5.133h2.584v-1.02c0-2.176-.918-2.924-3.74-2.924-1.87 0-3.808.34-4.624.748h-.306v-3.026c1.054-.51 3.366-.917 5.848-.917 5.337 0 7.003 1.768 7.003 5.575v11.151h-3.978v-1.531zm-3.535-1.02c1.564 0 3.026-.918 3.332-1.564v-2.992h-2.074c-2.448 0-3.706.714-3.706 2.38 0 1.36.986 2.176 2.448 2.176zM-85.239-49.22h4.182v1.972h.102c.85-1.122 2.549-2.142 4.521-2.142.408 0 .85.034 1.224.102v3.502h-.306c-.374-.068-.782-.136-1.19-.136-1.734 0-3.502.612-4.352 1.802v11.287h-4.182V-49.22zM-71.435-37.253v-8.805h-2.753v-3.162h2.753v-4.284h4.148v4.284h4.555v3.162h-4.555v7.853c0 1.904.578 2.516 2.176 2.516.85 0 1.563-.136 2.006-.271h.306v2.991c-.646.238-1.972.476-3.706.476-3.264-.001-4.93-1.496-4.93-4.76zM-61.949-25.286v-3.128h.306c.442.102.782.17 1.496.17 2.142 0 3.332-1.02 4.012-2.89l.17-.476-6.391-17.61h4.283l2.822 8.431c.102.374 1.054 3.366 1.122 3.808h.102c.068-.442 1.02-3.434 1.122-3.808l2.753-8.431h4.012l-6.527 18.766c-1.224 3.536-3.23 5.372-7.513 5.372-.817 0-1.327-.136-1.769-.204z"/>
  </g>
  <g>
    <path fill="#FB3E44" d="M-133.961-18.321V7.32h12.82v-19.231h6.411V7.32h6.41v-19.231h6.41V7.32h6.41v-25.641z"/>
    <path d="M-81.636 6.45h-.136c-.816.884-2.414 1.87-4.692 1.87-3.297 0-5.303-2.108-5.303-4.793 0-3.501 2.72-5.133 7.343-5.133h2.584v-1.02c0-2.176-.918-2.924-3.74-2.924-1.87 0-3.808.34-4.624.748h-.306v-3.026c1.054-.51 3.366-.917 5.848-.917 5.337 0 7.003 1.768 7.003 5.575V7.98h-3.978V6.45zm-3.536-1.02c1.564 0 3.026-.918 3.332-1.564V.875h-2.074c-2.448 0-3.706.714-3.706 2.38 0 1.359.986 2.175 2.448 2.175zM-65.282-8.746c1.972 0 3.434.408 4.317.884v3.025h-.306c-.816-.408-1.87-.816-3.672-.816-3.264 0-4.759 1.734-4.759 5.439 0 4.046 1.835 5.337 5.133 5.337 1.564 0 2.754-.306 3.638-.748h.306V7.3c-.884.51-2.516 1.02-4.828 1.02-5.576 0-8.635-3.094-8.635-8.227.001-5.474 3.298-8.839 8.806-8.839zM-57.224-16.837h4.182v9.995h.136c1.088-1.02 2.856-1.903 5.134-1.903 3.434 0 5.269 1.7 5.269 4.929V7.98h-4.181V-2.627c0-2.006-.85-2.788-2.754-2.788-1.428 0-2.788.68-3.604 1.428V7.98h-4.182v-24.817zM-38.184-13.88c0-1.564.952-2.38 2.482-2.38s2.516.816 2.516 2.38c0 1.53-.986 2.346-2.516 2.346s-2.482-.816-2.482-2.346zm.408 5.474h4.182V7.98h-4.182V-8.406zM-28.834-8.406h4.113v1.598h.136c1.122-1.02 2.924-1.938 5.201-1.938 3.434 0 5.27 1.7 5.27 4.929V7.98h-4.182V-2.627c0-2.006-.85-2.788-2.753-2.788-1.428 0-2.788.68-3.604 1.428V7.98h-4.182V-8.406zM4.722-1.063c0 .646-.034 1.292-.102 1.87H-6.123c.272 3.128 1.802 4.317 5.27 4.317 1.733 0 3.501-.374 4.352-.815h.306V7.3c-.85.544-2.992 1.02-5.473 1.02-6.154 0-8.839-3.162-8.839-8.397s2.958-8.669 8.261-8.669c4.826 0 6.968 3.434 6.968 7.683zm-10.845-.646H.608c-.102-2.516-.952-4.08-2.992-4.08-2.141 0-3.433 1.02-3.739 4.08z"/>
  </g>
</svg>
