<svg viewBox="0 0 82 62" xmlns="http://www.w3.org/2000/svg" xmlns:xlink="http://www.w3.org/1999/xlink">
  <defs>
    <path d="M52.744 28.125c.686 0 1.093-.36 1.093-1.023 0-.663-.407-1.035-1.093-1.035-.674 0-1.093.372-1.093 1.035 0 .663.419 1.023 1.093 1.023zM24.342 26.38v1.43c-.419.21-1.035.314-1.942.314-2.895 0-4.208-1.616-4.208-4 0-2.464 1.523-4.138 4.162-4.138.837 0 1.441.116 1.825.314v1.43h-.128c-.407-.163-.872-.303-1.628-.303-1.43 0-2.255.93-2.255 2.628 0 1.697.78 2.627 2.279 2.627.79 0 1.372-.14 1.767-.302h.128zm-13.544 1.744c2.441 0 3.906-1.593 3.906-4.162 0-2.535-1.5-3.976-3.93-3.976-2.441 0-3.906 1.593-3.906 4.15 0 2.546 1.5 3.988 3.93 3.988zm18.066 0c2.442 0 3.907-1.593 3.907-4.162 0-2.535-1.5-3.976-3.93-3.976-2.441 0-3.906 1.593-3.906 4.15 0 2.546 1.5 3.988 3.93 3.988zm7.894-8.022l1.605 4.523c.104.325.383 1.092.453 1.348h.035c.07-.256.349-1.023.453-1.348l1.605-4.523h2.72v7.906H41.85v-4.802c0-.407.012-1.035.035-1.36h-.046c-.093.314-.314.977-.442 1.337l-1.779 4.825h-1.58l-1.78-4.825c-.116-.36-.348-1.023-.441-1.337h-.035c.023.325.023.953.023 1.36v4.802h-1.767v-7.906h2.72zm13.719 0v1.453h-3.314v1.71h2.814v1.453h-2.814v1.836h3.442v1.454H45.28v-7.906h5.197zm-43.841 0v1.43H4.264v6.476H2.38v-6.476H.01v-1.43h6.627zm4.162 6.592c-1.303 0-1.954-.953-1.954-2.593 0-1.65.651-2.685 1.93-2.685 1.302 0 1.953.953 1.953 2.592 0 1.651-.65 2.686-1.93 2.686zm18.066 0c-1.302 0-1.953-.953-1.953-2.593 0-1.65.651-2.685 1.93-2.685 1.302 0 1.953.953 1.953 2.592 0 1.651-.65 2.686-1.93 2.686zM4.09 16.388c.36.15 1.082.29 1.93.29 1.151 0 1.593-.337 1.593-.848 0-.547-.29-.756-1.535-1.105-1.395-.395-2.185-.918-2.185-2.43 0-1.523 1.174-2.302 3.267-2.302.953 0 1.732.128 2.116.314v1.43h-.14c-.36-.162-1.128-.302-1.965-.302-1.058 0-1.418.29-1.418.71 0 .464.29.674 1.29.964 1.721.465 2.43 1.035 2.43 2.465 0 1.581-1.127 2.558-3.29 2.558-.953 0-1.825-.14-2.232-.314v-1.43h.14zM2.648 10.11v7.905H.764V10.11h1.884zm23.193 0v1.453h-3.313v1.709h2.814v1.453h-2.814v1.837h3.441v1.453h-5.324V10.11h5.196zm7.139 0v1.43h-2.372v6.475h-1.883V11.54h-2.372v-1.43h6.627zm-18.45 0l1.139 2.209c.163.314.476.953.581 1.22h.047c.093-.267.418-.906.57-1.22l1.15-2.21h1.977l-2.884 5.07v2.836h-1.883V15.18l-2.767-5.07h2.07zm24.472-3.716c.36.151 1.081.291 1.93.291 1.151 0 1.593-.337 1.593-.849 0-.546-.29-.755-1.535-1.104-1.395-.395-2.186-.919-2.186-2.43C38.804.779 39.98 0 42.071 0c.954 0 1.733.128 2.116.314v1.43h-.14c-.36-.163-1.127-.302-1.964-.302-1.058 0-1.418.29-1.418.709 0 .465.29.674 1.29.965 1.72.465 2.43 1.034 2.43 2.464 0 1.582-1.128 2.558-3.29 2.558-.954 0-1.826-.14-2.232-.314v-1.43h.14zM9.391 3.302h3.116V.116h1.871v7.906h-1.871V4.836H9.39v3.186H7.507V.116h1.884v3.186zM51.349.116v1.43h-2.372v6.476h-1.883V1.546h-2.372V.116h6.627zm-44.713 0v1.43H4.264v6.476H2.38V1.546H.01V.116h6.627zm21.717 0c1.964 0 2.79.86 2.79 2.046 0 .745-.546 1.43-1.43 1.71 1.058.244 1.814.906 1.814 1.825 0 1.488-.954 2.325-3.186 2.325H25.18V.116h3.174zm9.51 0V1.57h-3.314v1.709h2.814v1.453h-2.814v1.837h3.442v1.453h-5.325V.116h5.197zm-16.649 0V1.57h-3.313v1.709h2.813v1.453h-2.813v1.837h3.441v1.453h-5.324V.116h5.196zm6.918 6.557c.988 0 1.453-.255 1.453-1.023 0-.662-.43-.988-1.349-.988h-1.185v2.011h1.08zm.011-3.301c.733 0 1.105-.36 1.105-.954 0-.604-.337-.953-1.163-.953h-1.034v1.907h1.092z" id="a"/>
  </defs>
  <g fill="none" fill-rule="evenodd">
    <path d="M67.115 44.187c.686 0 1.093-.36 1.093-1.023 0-.662-.407-1.034-1.093-1.034-.674 0-1.092.372-1.092 1.034 0 .663.418 1.023 1.092 1.023zm-28.402-1.744v1.43c-.418.21-1.034.314-1.941.314-2.895 0-4.209-1.616-4.209-3.999 0-2.465 1.523-4.139 4.162-4.139.837 0 1.442.117 1.825.314v1.43h-.127c-.407-.163-.872-.302-1.628-.302-1.43 0-2.255.93-2.255 2.627 0 1.698.779 2.628 2.278 2.628.79 0 1.372-.14 1.767-.303h.128zM25.17 44.187c2.442 0 3.906-1.592 3.906-4.162 0-2.534-1.5-3.976-3.93-3.976-2.44 0-3.905 1.593-3.905 4.15 0 2.547 1.5 3.988 3.93 3.988zm18.067 0c2.441 0 3.906-1.592 3.906-4.162 0-2.534-1.5-3.976-3.93-3.976-2.44 0-3.906 1.593-3.906 4.15 0 2.547 1.5 3.988 3.93 3.988zm7.894-8.021l1.604 4.522c.105.325.384 1.093.454 1.349h.034c.07-.256.35-1.024.454-1.349l1.604-4.522H58v7.905h-1.778V39.27c0-.407.012-1.035.035-1.36h-.047c-.093.313-.314.976-.442 1.336l-1.778 4.825h-1.581l-1.78-4.825c-.115-.36-.348-1.023-.44-1.337h-.036c.023.326.023.954.023 1.36v4.802H48.41v-7.905h2.72zm13.718 0v1.453h-3.313v1.709h2.813v1.453h-2.813v1.837h3.441v1.453h-5.324v-7.905h5.196zm-43.84 0v1.43h-2.373v6.475h-1.883v-6.475H14.38v-1.43h6.627zm4.161 6.591c-1.302 0-1.953-.953-1.953-2.592 0-1.651.65-2.686 1.93-2.686 1.302 0 1.953.954 1.953 2.593 0 1.65-.651 2.685-1.93 2.685zm18.067 0c-1.302 0-1.953-.953-1.953-2.592 0-1.651.65-2.686 1.93-2.686 1.302 0 1.953.954 1.953 2.593 0 1.65-.651 2.685-1.93 2.685zM18.46 32.45c.36.151 1.081.29 1.93.29 1.15 0 1.593-.336 1.593-.848 0-.546-.291-.756-1.535-1.104-1.395-.396-2.186-.919-2.186-2.43 0-1.523 1.174-2.302 3.267-2.302.953 0 1.732.128 2.116.314v1.43h-.14c-.36-.163-1.127-.302-1.964-.302-1.058 0-1.419.29-1.419.709 0 .465.291.674 1.29.965 1.722.465 2.43 1.034 2.43 2.464 0 1.581-1.127 2.558-3.29 2.558-.953 0-1.825-.14-2.232-.314v-1.43h.14zm-1.442-6.278v7.906h-1.883v-7.906h1.883zm23.194 0v1.453H36.9v1.71h2.813v1.453H36.9v1.837h3.44v1.453h-5.324v-7.906h5.197zm7.138 0v1.43H44.98v6.476h-1.884v-6.476h-2.371v-1.43h6.626zm-18.45 0l1.14 2.209c.162.314.476.953.58 1.22h.047c.093-.267.419-.906.57-1.22l1.15-2.209h1.977l-2.883 5.069v2.837h-1.883V31.24l-2.767-5.069H28.9zm24.473-3.715c.36.15 1.08.29 1.93.29 1.15 0 1.592-.337 1.592-.848 0-.547-.29-.756-1.534-1.105-1.396-.395-2.186-.918-2.186-2.43 0-1.523 1.174-2.301 3.267-2.301.953 0 1.732.127 2.116.313v1.43h-.14c-.36-.162-1.128-.302-1.965-.302-1.058 0-1.418.29-1.418.71 0 .464.29.674 1.29.964 1.721.465 2.43 1.035 2.43 2.465 0 1.581-1.127 2.558-3.29 2.558-.953 0-1.825-.14-2.232-.314v-1.43h.14zm-29.612-3.093h3.116V16.18h1.872v7.905h-1.872V20.9h-3.116v3.185H21.88V16.18h1.883v3.185zM65.72 16.18v1.43H63.35v6.475h-1.884V17.61h-2.372v-1.43h6.627zm-44.713 0v1.43h-2.372v6.475h-1.883V17.61H14.38v-1.43h6.627zm21.717 0c1.965 0 2.79.86 2.79 2.046 0 .744-.546 1.43-1.43 1.709 1.058.244 1.814.907 1.814 1.825 0 1.488-.953 2.325-3.185 2.325H39.55V16.18h3.174zm9.51 0v1.453h-3.313v1.71h2.813v1.452h-2.813v1.837h3.441v1.453h-5.325V16.18h5.197zm-16.648 0v1.453h-3.313v1.71h2.813v1.452h-2.813v1.837h3.44v1.453H30.39V16.18h5.197zm6.917 6.557c.989 0 1.454-.256 1.454-1.023 0-.663-.43-.988-1.35-.988h-1.185v2.01h1.081zm.012-3.302c.732 0 1.104-.36 1.104-.953 0-.605-.337-.954-1.162-.954h-1.035v1.907h1.093z" fill="#D7D3CC" fill-rule="nonzero"/>
    <g transform="translate(14.371 16.062)">
      <mask id="b" fill="#fff">
        <use xlink:href="#a"/>
      </mask>
      <g mask="url(#b)" fill="#55C271">
        <path d="M11.882 7.78s1.724-1.086 3.032-1.319l-.169 1.903-2.705.313-.158-.897zM18.035 4.89s1.054-1.252 1.607-2.304c.552-1.05 2.44-.085 2.44-.085l-2.155 2.795-1.892-.406zM28.808 5.296s-.272 2.887-1.104 3.212c-.832.326-3.123-.035-3.123-.035s2.25-3.037 2.474-3.797l1.753.62zM6.042 11.772S1.945 14.552.269 16.18c-1.677 1.629.627 1.931.627 1.931l2.343-2.929 2.96.244s1.043-2.23 1.83-2.749c.785-.519-1.987-.905-1.987-.905zM22.539 11.552s.865-1.155.957-1.967c.091-.812 7.188.164 7.188.164s-1.073 1.557-3.099 2.347c-2.026.79-4.979.18-5.046-.544zM27.74 13.72s1.02-1.04 3.27-1.948l-.058 2.028s-1.386.706-2.55 1.88c-1.164 1.173-.662-1.96-.662-1.96zM34.564 1.577s.578-1.606.733-1.895c.155-.289 2.68-.004 2.68-.004S36.911 1.545 36.691 1.8c-.22.256-2.127-.223-2.127-.223zM38.531 4.3s.664-.989 1.152-1.883c.487-.893 1.165-1.815 1.489-1.604.323.21-.52 3.233-1.351 4.067-.831.833-1.29-.58-1.29-.58zM26.514 28.125s.467-1.887 1.443-2.773c.976-.887-.108-1.187-.108-1.187s-1.943 1.547-2.311 3.09c-.369 1.544.976.87.976.87zM24.536 20.029s-.917 1.865-1.281 2.38c-.364.516-3.379 5.862-3.379 5.862l-1.77-1.276s1.949-3.013 2.504-3.81c.556-.795 2.17-3.412 2.17-3.412s1.442-.166 1.756.256zM5.315 22.12s.854-2.007 1.698-2.38c.844-.372.43.918.43.918s-1.116 2.131-2.128 1.463zM6.451 3.538s3.162-.619 3.504-1.786c.341-1.166.056-2.048.056-2.048S7.948 1.292 7.158 1.45c-.79.156-.707 2.09-.707 2.09z"/>
      </g>
    </g>
    <g fill="#25282A">
      <path d="M39.928 34.078c-2.533 3.984-6.37 10.288-8.195 13.786-1.838 3.525-11.327 10.07-15.124 11.525-3.796 1.455-3.813.702-3.106-.054 1.28-1.368 8.364-3.574 10.782-8.154 1.96-3.714 4.74-8.798 8.666-12.947-.255.567-.388 1.226-.388 1.954 0 .265.016.52.05.765-1.598 2.498-5.003 7.447-4.096 7.467 1.016.023 4.642-4.999 5.947-7.777 1.306-2.778 4.057-6.035 4.057-6.035.679-1.194-.552-.123-2.035 1.446a4.736 4.736 0 0 0-1.642.342c.34-.302.689-.597 1.045-.882l1.79-1.436h2.25zm1.297 25.435c.024-1.282 1.928-6.92 3.957-8.19 2.03-1.269 7.148-2.652 8.367-4.635 1.219-1.983 2.102-1.738 1.395-.392-.707 1.346-2.867 3.322-5.574 3.978-2.708.656-5.01 7.184-4.335 8.738.675 1.555-3.835 1.781-3.81.5zM16.752 37.596v.988c-.561 1.065-1.131 1.946-1.712 2.465-2.272 2.025-6.175 5.852-3.63 4.96 1.482-.519 3.462-1.94 5.342-3.805v1.867h1.883v-3.933c.65-.79 1.258-1.621 1.792-2.467 1.936-3.07 5.827-4.805 9.172-6.268v2.27c-1.627.719-2.945 1.521-4.036 2.391a5.747 5.747 0 0 0-.417-.015c-2.442 0-3.906 1.593-3.906 4.15 0 .435.043.837.128 1.205-.254.508-.49 1.025-.716 1.55C19.03 46.711 4.786 54.467 1.41 56.33c-.708.39-1.43-1.51-1.012-2.202C2.066 51.37 9.44 47.172 11.41 39.781c1.223-4.588 5.41-9.067 9.66-12.26.138-.015.295-.023.472-.023.452 0 .883.04 1.241.103-.401.437-.819.925-1.303 1.477-.674.771-1.352 2.096-2.038 3.603-.423-.055-.766-.14-.981-.23h-.14v1.43c.13.055.308.107.52.152-.31.708-.621 1.43-.935 2.133H14.38v1.43h2.372zm27.733.345c.118.113.22.246.308.398a15.04 15.04 0 0 0-2.84 2.954c-1.56 2.167-2.48 7.252-5.343 7.756-2.863.503-3.973.913-3.328-.085 0 0 .644-1.052 2.248-1.267 1.604-.216 3.206-1.796 4.734-4.68.824-1.555 2.443-3.448 4.22-5.076zm1.3-1.12c1.116-.9 2.234-1.646 3.209-2.1 2.945-1.37 5.861-7.75 5.901-6.164.04 1.586-1.998 5.764-5.443 7.119-1.17.46-2.23 1.005-3.18 1.61a3.152 3.152 0 0 0-.487-.465zm-2.689-2.743h.73l-.117.079c-1.19.81-2.82 1.697-2.87 2.293-.052.595-1.633.949-.36-.624 0 0 1.093-1.368 2.511-1.902l.106-.041v.195zm9.076-9.994c-1.03 1.515-2.169 2.878-3.206 3.57-2.813 1.872-6.128 2.316-8.625 5.807v-.836h-.851c2.711-2.174 4.45-3.542 6.558-5.023h1.303v-.901c1.497-1.038 2.51-1.826 3.3-2.617h1.52zm-7.192 8.753c1.11-.734 2.212-1.63 2.684-2.204.777-.944.887.179-.33 1.118-.787.607-1.575 1.096-2.354 1.585v-.5zm-9.964-4.053v2.6c-1.186.522-2.375 1.02-3.534 1.5v-1.643l.523-.92.102-.05c.95-.46 1.941-.939 2.91-1.487zM79.798 5.388s-8.662 4.244-11.055 9.97c-2.392 5.727-3.35 10.636-8.09 14.767s.891 2 4.353-3.011c3.462-5.011 2.57-9.032 5.438-12.523 2.868-3.492 13.984-10.967 9.354-9.203zM39.303 29.334H36.9v-1.709h.025s3.615-3.416 4.343-6.336c.046-.185.154-.54.154-.54v-.024h1.186c.18 0 .34.012.484.037l-.008.034c-.6 2.784-2.725 5.671-2.725 5.671s2.097.153 3.58-1.632c.249-.3.557-.698.906-1.165.57-.305.895-.772 1.008-1.384.378-.531.778-1.102 1.184-1.692v2.576c-.26.342-.528.68-.806 1.015-1.655 1.998-4.145 3.677-6.928 5.15zm-8.914-6.85v1.242c-.8.264-1.602.492-2.381.727-2.156.651-3.327 1.332-4.362 2.278v-.361a2.74 2.74 0 0 0-.666-.197c1.938-1.281 3.797-2.251 5.293-2.795.786-.285 1.487-.58 2.116-.894zm21.479.147c.27-.387.527-.804.791-1.27 1.28-2.261 2.602-4.833 2.808-3.945.129.555-1.297 3.66-3.105 6.385v-1.17h-.494zm-18.835 0h-.76v-1.298c1.296-.981 2.186-2.162 2.931-3.7h.382v-.85c.355-.845.685-1.79 1.024-2.856 1.656-5.211 6.334-10.716 9.38-12.879C48.405-.668 54.864.122 54.881.95c.017.827-4.532 2.667-8.79 5.062-4.256 2.395-6.348 3.985-8.032 10.052-.992 3.573-2.874 5.422-5.027 6.568zm9.482-3.197h-.734c.214-.696.438-1.325.678-1.907.783.001 1.126.316 1.158.866-.055.217-.107.435-.157.655-.174.247-.49.386-.945.386zm7.18-.093h-.774v-1.544a99.409 99.409 0 0 0 1.89-2.974c1.844-3.042 5.61-7.317 9.001-10.576C63.202.99 64.892.784 64.892.784s1.551-.26 1.272.06c-1.31 1.503-3.82 3.56-9.131 8.96-3.374 3.43-5.405 6.598-7.337 9.537zm-29.444-.074s4.405-.463 6.83-5.108c2.423-4.646 3.864-6.398 3.187-6.268-.677.13-3.691 1.45-4.292 4.131-.601 2.682-2.104 5.124-3.509 5.602-1.404.477-5.012 1.789-2.216 1.643zm22.83-3.078c1-1.918 2.3-3.432 4.254-5.593 3.348-3.701 7.175-4.373 7.175-4.373s-5.361 4.864-7.908 7.043a8.438 8.438 0 0 0-2.335 3.158 3.896 3.896 0 0 0-1.186-.235z"/>
    </g>
  </g>
</svg>
