<?xml version="1.0" encoding="UTF-8"?>
<svg width="79px" height="23px" viewBox="0 0 79 23" version="1.1" xmlns="http://www.w3.org/2000/svg" xmlns:xlink="http://www.w3.org/1999/xlink">
    <!-- Generator: Sketch 53.2 (72643) - https://sketchapp.com -->
    <title>Group 15</title>
    <desc>Created with Sketch.</desc>
    <g id="Page-1" stroke="none" stroke-width="1" fill="none" fill-rule="evenodd">
        <g id="Customer-profile" transform="translate(-188.000000, -59.000000)" fill="#333333" fill-rule="nonzero">
            <g id="Group-15" transform="translate(188.000000, 59.000000)">
                <path d="M10.3338932,23 C7.17756351,23 4.6661946,22.0491051 2.79971116,20.1472868 C0.933227721,18.2454685 0,15.6007921 0,12.2131783 C0,9.92505316 0.455233035,7.89697266 1.36571276,6.12887597 C2.27619249,4.36077927 3.53567055,2.98643901 5.14418473,2.00581395 C6.75269892,1.0251889 8.55845662,0.534883721 10.561512,0.534883721 C13.0501566,0.534883721 15.2201007,0.950900233 17.0714095,1.78294574 L17.5266471,6.0620155 C15.5842903,4.57621996 13.5205673,3.83333333 11.3354159,3.83333333 C9.54480579,3.83333333 8.15634503,4.5019313 7.16999199,5.83914729 C6.18363896,7.17636328 5.69046984,9.01872211 5.69046984,11.3662791 C5.69046984,13.9515633 6.28986,16.0019304 7.4886583,17.5174419 C8.68745661,19.0329533 10.3490572,19.7906977 12.4735099,19.7906977 C14.355168,19.7906977 16.0850535,19.4192544 17.6632184,18.6763566 C17.3900745,20.2512999 16.6237655,21.3656298 15.3642686,22.0193798 C14.1047716,22.6731299 12.4279966,23 10.3338932,23 Z M29.7297459,23 C27.5445945,23 25.6174413,22.5171237 23.9482285,21.5513566 C22.2790157,20.5855895 20.9891887,19.2558224 20.078709,17.5620155 C19.1682293,15.8682086 18.7129962,13.9515611 18.7129962,11.8120155 C18.7129962,9.58332219 19.2061654,7.61467263 20.1925184,5.90600775 C21.1788714,4.19734288 22.5066345,2.87500468 24.1758473,1.93895349 C25.8450601,1.0029023 27.6659923,0.534883721 29.6386983,0.534883721 C31.763151,0.534883721 33.6447809,0.99547343 35.2836444,1.91666667 C36.9225079,2.8378599 38.1895732,4.14534037 39.0848783,5.83914729 C39.9801833,7.53295421 40.4278291,9.50903264 40.4278291,11.7674419 C40.4278291,13.8475556 39.9725961,15.7419165 39.0621164,17.4505814 C38.1516367,19.1592463 36.8845714,20.5112999 35.2608825,21.5067829 C33.6371937,22.502266 31.7934999,23 29.7297459,23 Z M29.9118409,20.5930233 C31.3079098,20.5930233 32.4156435,19.8575655 33.2350753,18.3866279 C34.054507,16.9156903 34.4642168,14.932183 34.4642168,12.4360465 C34.4642168,9.55360316 34.0241582,7.25808348 33.1440278,5.5494186 C32.2638974,3.84075373 31.065117,2.98643411 29.5476508,2.98643411 C28.6371711,2.98643411 27.8253388,3.33559082 27.1121297,4.03391473 C26.3989206,4.73223863 25.8298793,5.72027785 25.4049888,6.99806202 C24.9800982,8.27584618 24.7676562,9.76161944 24.7676562,11.4554264 C24.7676562,13.2680969 24.9952727,14.8653032 25.4505125,16.247093 C25.9057524,17.6288829 26.5279042,18.6986396 27.3169866,19.4563953 C28.1060691,20.2141511 28.9710118,20.5930233 29.9118409,20.5930233 Z M41.6569706,22.6434109 C42.6584983,22.1679563 43.3641095,21.6479356 43.7738254,21.0833333 C44.1835413,20.518731 44.3883962,19.7907021 44.3883962,18.8992248 L44.3883962,6.46317829 L42.339827,2.40697674 L49.9878185,0 L49.9878185,18.8992248 C49.9878185,19.820418 50.1774989,20.5633047 50.5568655,21.127907 C50.936232,21.6925093 51.6570176,22.1976722 52.719244,22.6434109 L41.6569706,22.6434109 Z M58,6.50775194 C56.3611365,5.67570643 54.7678209,5.25968992 53.2200053,5.25968992 C51.9149844,5.25968992 50.8375995,5.63113324 49.9878185,6.37403101 C50.412709,4.35334907 51.0879713,2.86757581 52.0136257,1.91666667 C52.9392801,0.965757519 54.1759965,0.490310078 55.7238121,0.490310078 C56.4825452,0.490310078 57.1805692,0.594314205 57.817905,0.802325581 L58,6.50775194 Z" id="core"></path>
                <path d="M70.6478555,23 C67.0360993,23 64.191884,22.0340705 62.1151242,20.1021825 C60.0383643,18.1702946 59,15.4398325 59,11.9107143 C59,9.65938028 59.4740359,7.62104087 60.4221219,5.79563492 C61.3702079,3.97022897 62.6719255,2.54795483 64.3273138,1.52876984 C65.982702,0.509584851 67.8487481,-2.98427949e-13 69.9255079,-2.98427949e-13 C72.724619,-2.98427949e-13 74.9367865,0.836631845 76.5620767,2.50992063 C78.187367,4.18320942 79,6.43450966 79,9.26388889 C79,9.78108724 78.9849512,10.1613744 78.9548533,10.4047619 L65.0045147,10.4047619 L65.0045147,11.4543651 C65.0045147,14.0403568 65.7193307,16.0482733 67.1489842,17.4781746 C68.5786377,18.9080759 70.5274519,19.6230159 72.9954853,19.6230159 C75.0120492,19.6230159 76.7878027,19.2579402 78.3227991,18.5277778 C77.9917214,19.9272557 77.2543323,20.9920598 76.1106095,21.7222222 C74.7562009,22.5740783 72.9353011,23 70.6478555,23 Z M73.3115124,8.44246032 C73.2814144,6.79959496 72.9879637,5.44577252 72.4311512,4.38095238 C71.8743388,3.31613224 70.9337914,2.78373016 69.6094808,2.78373016 C68.2851702,2.78373016 67.2242327,3.40740117 66.4266366,4.6547619 C65.6290404,5.90212264 65.185102,7.34721401 65.0948081,8.99007937 L73.3115124,8.44246032 Z" id="Combined-Shape"></path>
            </g>
        </g>
    </g>
</svg>